<svg width="13" height="13" viewBox="0 0 13 13" fill="none" xmlns="http://www.w3.org/2000/svg">
<path d="M2.3239 3.79819C3.1295 3.79819 3.78257 3.14513 3.78257 2.33953C3.78257 1.53393 3.1295 0.880859 2.3239 0.880859C1.5183 0.880859 0.865234 1.53393 0.865234 2.33953C0.865234 3.14513 1.5183 3.79819 2.3239 3.79819Z" fill="#70777A"/>
<path d="M5.15765 4.9041V12.9968H7.67032V8.99477C7.67032 7.93877 7.86899 6.9161 9.17832 6.9161C10.4697 6.9161 10.4857 8.12343 10.4857 9.06143V12.9974H12.9997V8.55944C12.9997 6.37944 12.5303 4.7041 9.98232 4.7041C8.75899 4.7041 7.93899 5.37543 7.60365 6.01077H7.56965V4.9041H5.15765ZM1.06299 4.9041H3.57965V12.9968H1.06299V4.9041Z" fill="#70777A"/>
</svg>
